<svg id="Layer_1" data-name="Layer 1" xmlns="http://www.w3.org/2000/svg" viewBox="0 0 294 119.4">
  <defs>
    <style>
      .cls-1 {
        fill: #0f111a;
      }
    </style>
  </defs>
  <title>ombori_logo_inline</title>
  <g>
    <path class="cls-1" d="M84.05,57.6h-9.6a16.93,16.93,0,0,0-15.1-15.1V33.6a25.2,25.2,0,0,1,8.1,1.9l1.6.7,7-17-3.3-1.4-5.7,13.7a33.66,33.66,0,0,0-7.8-1.5V7.7h-3.6V42.5a17,17,0,0,0-15.1,15.2h-8.9a25.2,25.2,0,0,1,1.9-8.1l.7-1.6-17-7-1.4,3.3L29.55,50a33.66,33.66,0,0,0-1.5,7.8H5.75v3.6h34.8a16.93,16.93,0,0,0,15.1,15.1v8.9a25.2,25.2,0,0,1-8.1-1.9L46,82.8l-7,17,3.3,1.4L48,87.5a33.66,33.66,0,0,0,7.8,1.5v22.3h3.6V76.4a16.93,16.93,0,0,0,15.1-15.1h8.9a25.2,25.2,0,0,1-1.9,8.1l-.7,1.6,17,7,1.4-3.3L85.45,69A33.66,33.66,0,0,0,87,61.2h22.4V57.6H84.05Zm-13.3,3.7a13.47,13.47,0,0,1-11.5,11.5,10.87,10.87,0,0,1-1.8.1c-.6,0-1.2-.1-1.8-.1a13.37,13.37,0,0,1-11.5-11.5,10.87,10.87,0,0,1-.1-1.8c0-.6.1-1.2.1-1.8a13.54,13.54,0,0,1,3.6-7.5,13.36,13.36,0,0,1,7.9-4,10.87,10.87,0,0,1,1.8-.1c.6,0,1.2.1,1.8.1a13.37,13.37,0,0,1,11.5,11.5,10.87,10.87,0,0,1,.1,1.8C70.85,60.1,70.75,60.7,70.75,61.3Z"/>
    <path class="cls-1" d="M75.75,77.8a25.25,25.25,0,0,1-8.4,5.6l-1.6.7,7,17,3.3-1.4L70.35,86a31.83,31.83,0,0,0,7.9-5.7Z"/>
    <path class="cls-1" d="M81.45,49.5l.7,1.6,17-7-1.4-3.3-13.7,5.7a31.83,31.83,0,0,0-5.7-7.9l-2.5,2.5A26.31,26.31,0,0,1,81.45,49.5Z"/>
    <path class="cls-1" d="M39.15,41.1a26.31,26.31,0,0,1,8.4-5.6l1.6-.7-7-17-3.3,1.4,5.7,13.7a31.83,31.83,0,0,0-7.9,5.7Z"/>
    <path class="cls-1" d="M33.55,69.4l-.7-1.6-17,7,1.4,3.3L31,72.4a31.83,31.83,0,0,0,5.7,7.9l2.5-2.5A26.31,26.31,0,0,1,33.55,69.4Z"/>
    <rect class="cls-1" x="284.25" y="46.7" width="4" height="24"/>
    <path class="cls-1" d="M238.15,46a12.7,12.7,0,1,0,12.7,12.7A12.72,12.72,0,0,0,238.15,46Zm0,21.4a8.7,8.7,0,1,1,8.7-8.7A8.71,8.71,0,0,1,238.15,67.4Z"/>
    <path class="cls-1" d="M215.55,58.1a5.48,5.48,0,0,0,2.2-4.7c0-4.1-3-6.7-7.8-6.7h-7.2v24H211a8.38,8.38,0,0,0,5.9-1.9,6.39,6.39,0,0,0,2.2-5.1A5.86,5.86,0,0,0,215.55,58.1Zm-8.8-7.6h3.1c2.3,0,3.6,1.2,3.6,3.2,0,1.8-1.4,3-3.5,3h-3.2ZM211,66.9h-4.2V60.4H211c2.5,0,3.9,1.2,3.9,3.2S213.35,66.9,211,66.9Z"/>
    <path class="cls-1" d="M146,46a12.7,12.7,0,1,0,12.7,12.7A12.72,12.72,0,0,0,146,46Zm0,21.4a8.7,8.7,0,1,1,8.7-8.7A8.71,8.71,0,0,1,146,67.4Z"/>
    <path class="cls-1" d="M274.85,54a7.08,7.08,0,0,0-7.3-7.3h-8.7V61.3h0v9.4h4V61.3h2.6l5.5,9.4h4.6l-5.7-9.8A6.89,6.89,0,0,0,274.85,54Zm-7.3,3.3h-4.7V50.7h4.7a3.3,3.3,0,0,1,.2,6.6Z"/>
    <polygon class="cls-1" points="185.95 46.7 180.05 63.8 174.15 46.7 169.95 46.7 166.15 70.7 170.25 70.7 172.75 55 178.15 70.7 181.85 70.7 187.25 55 189.75 70.7 193.85 70.7 190.05 46.7 185.95 46.7"/>
  </g>
</svg>
